<?xml version="1.0" standalone="yes"?>
<svg xmlns="http://www.w3.org/2000/svg" width="1000" height="788">
<path style="fill:#638a9f; stroke:none;" d="M0 0L0 736C3.81134 734.698 4.45695 731.384 7.37577 728.88C14.6701 722.62 27.406 713.489 30 704L34 704L38 696C44.4225 694.925 46.7109 689.114 50.858 684.816C59.0779 676.296 73.9534 669.168 74 656L80 656L88 648L88 642L96 642L96 632L104 632L112 624L112 620L116 616L120 616L120 610L127.821 608.397L129 595L129 560L130 560L129 621L130 621C132.171 510.493 131 399.631 131 289L131 203C131 189.777 128.651 174.417 136.789 163C148.65 146.361 166.982 149 185 149L303 149L678 149L786 149C804.976 149 826.066 146.092 844 153L844 152C832.544 145.987 818.54 148 806 148L731 148L456 148L456 147L584 146L584 145L568 145L568 144L576 144L576 139L584 136L584 128C589.473 126.209 598.209 117.473 600 112C609.106 111.311 611.775 99.3875 618.294 93.9614C638.086 77.4875 656.565 57.8737 674.363 39.2902C681.6 31.7332 686.001 20.8425 696 16L696 12C703.447 10.6559 705.974 7.31439 706 0L0 0z"/>
<path style="fill:#3c647e; stroke:none;" d="M706 0C705.916 7.09973 702.73 10.0195 696 12L696 16C685.882 18.9948 680.931 31.3859 674.363 38.5455C656.666 57.8365 636.925 76.3504 617.544 93.9614C611.541 99.4158 608.464 110.689 600 112L584 128L584 136L576 139L576 144L568 144L568 145L584 145L584 146L456 147L456 148L720 148L799 148C811.294 148 826.243 145.704 838 149.761C846.294 152.622 849.972 160.054 857 164L856 166L862 170L862 176C866.56 176 865 196.728 865 201L865 282L865 523L865 598C865 607.037 862.1 620.979 864 629L862 629L863 633L856 638L855 638C853.109 642.214 850.676 644.536 846 645C846 647.436 845.214 646.615 843 646C843 648.054 842.101 649.001 841 647C829.228 653.547 805.389 649.333 791.667 649.333L669 649.333C552.016 649.333 435.132 650 318 650L209 650C194.751 650 174.419 646.145 161 650L148 640C138.378 636.149 131.902 626.268 131 616L130 616L130 621L129 621L130 560L129 560L129 594L127.821 607.682L120 610L120 616L116 616L112 620L112 624C107.828 625.235 105.235 627.828 104 632L96 632L96 642L88 642L88 648C83.8278 649.235 81.2349 651.828 80 656L74 656C73.8532 668.395 58.7228 676.136 50.858 684.042C46.5966 688.327 44.148 694.131 38 696L34 704L30 704C25.5666 713.912 14.4699 721.642 6.63349 728.88C4.0402 731.275 3.16295 734.205 0 736L0 788L1000 788L999 0L706 0z"/>
<path style="fill:#638a9f; stroke:none;" d="M999 0L999 709L1000 709L1000 206L1000 61L1000 20L999 0M712 8L712 10L714 8L712 8M704 16L704 18L706 16L704 16M696 24L696 26L698 24L696 24M671 47L672 48L671 47z"/>
<path style="fill:#3c647e; stroke:none;" d="M614 80L614 83L616 83L616 80L614 80z"/>
<path style="fill:#638a9f; stroke:none;" d="M600 130L602 133L600 130z"/>
<path style="fill:#3c647e; stroke:none;" d="M565 136L568 134L565 136z"/>
<path style="fill:#638a9f; stroke:none;" d="M592 136L593 137L592 136z"/>
<path style="fill:#3c647e; stroke:none;" d="M557 143L560 141L557 143z"/>
<path style="fill:#638a9f; stroke:none;" d="M577 143L577 144L595 144L577 143z"/>
<path style="fill:#3c647e; stroke:none;" d="M560 145L560 146L568 146L560 145M440 147L441 148L440 147M442 147L443 148L442 147M444 147L445 148L444 147M446 147L446 148L449 148L446 147M450 147L451 148L450 147M452 147L453 148L452 147M454 147L455 148L454 147z"/>
<path style="fill:#f6f5f5; stroke:none;" d="M156 149.468C143.964 151.724 134.756 161.241 131.9 173C129.752 181.841 131 191.951 131 201L131 254L131 534L131 600C131 612.617 130.455 625.268 140.093 634.907C152.634 647.448 172.865 644 189 644L309 644L672 644L783 644C799.823 644 820.75 647.326 837 642.699C846.924 639.873 855.351 632.045 858.073 622C860.505 613.02 859 602.244 859 593L859 538L859 254L859 190C859 177.034 859.232 164.413 847.985 155.529C834.476 144.858 812.102 149 796 149L672 149L323 149L211 149C193.443 149 173.256 146.233 156 149.468z"/>
<path style="fill:#638a9f; stroke:none;" d="M845 153L846 154L845 153M846 154L847 155L846 154M848 155L849 156L848 155M849 156L850 157L849 156M850 157L851 158L850 157M851 158L852 159L851 158M852 159L853 160L852 159M853 161L854 162L853 161M855 164L856 165L855 164z"/>
<path style="fill:#321715; stroke:none;" d="M856 164L857 165L856 164z"/>
<path style="fill:#638a9f; stroke:none;" d="M856 166L857 167L856 166z"/>
<path style="fill:#321715; stroke:none;" d="M857 166C861.124 181.429 860 197.074 860 213L860 284L860 519L860 597C860 610.535 861.151 624.299 850.815 634.826C837.89 647.989 816.755 645 800 645L679 645L322 645L214 645C191.556 645 168.747 646.934 147 641L147 642L161 650L212 650L321 650L663.667 649.667L792.333 649.667L825 649L841 647C842.311 648.958 843.059 648.006 843 646C845.168 646.716 846.031 647.294 846 645C850.883 645.458 853.739 642.631 855 638L856 638L863 633L862 629L864 629C862.668 595.816 865 561.424 865 528L865 282L865 201C865.002 196.512 867.281 176.879 862 176L862 170L857 166z"/>
<path style="fill:#638a9f; stroke:none;" d="M857 168L858 169L857 168z"/>
<path style="fill:#3c647e; stroke:none;" d="M858 170L859 171L858 170z"/>
<path style="fill:#638a9f; stroke:none;" d="M858.333 171.667L858.667 172.333L858.333 171.667z"/>
<path style="fill:#321715; stroke:none;" d="M862 171L863 172L862 171z"/>
<path style="fill:#3c647e; stroke:none;" d="M859.333 174.667L859.667 175.333L859.333 174.667z"/>
<path style="fill:#638a9f; stroke:none;" d="M859 176L859 617L860 617L860 305L860 215C860 203.842 863.308 186.266 859 176M218 213L218 485L218 549C218 552.309 215.991 568.364 221 568.364C226.009 568.364 224 552.309 224 549L224 485L224 213L223 213L223 568L219 568L219 317L219 245L218 213z"/>
<path style="fill:#321715; stroke:none;" d="M219 213L219 326L220 326L220 320L221 320L222 323L223 323L223 213L219 213z"/>
<path style="fill:#638a9f; stroke:none;" d="M228 213L228 486L228 549C228 555.782 224.958 568.296 234 569L234 568L229 568L229 317L229 245L228 213z"/>
<path style="fill:#321715; stroke:none;" d="M229 213L229 295C229 299.95 226.508 319.31 232 320L232 324L233 324L233 213L229 213z"/>
<path style="fill:#638a9f; stroke:none;" d="M233 213L233 216L234 216L233 213z"/>
<path style="fill:#3c647e; stroke:none;" d="M251.333 213.667L251.667 214.333L251.333 213.667z"/>
<path style="fill:#321715; stroke:none;" d="M252 323L253 323C257.779 310.45 256 296.353 256 283L256 213C248.642 214.29 252 232.771 252 239L252 323z"/>
<path style="fill:#3c647e; stroke:none;" d="M263 213L263 323L264 323L264 246L263 213z"/>
<path style="fill:#321715; stroke:none;" d="M264 213L264 321L265 321L266 318L271 318L271 324L272 324L272 213L264 213z"/>
<path style="fill:#3c647e; stroke:none;" d="M272 213L272 320L273 320L273 246L272 213z"/>
<path style="fill:#638a9f; stroke:none;" d="M278 213L278 463L278 508C278 514.314 276.516 522.783 278.318 528.852C279.858 534.039 296.079 533.343 299 530L279 531L279 306L279 242L278 213z"/>
<path style="fill:#321715; stroke:none;" d="M279 213L279 322L280 322C283.993 317.9 291.446 318.922 297 319L297 324L298 324L298 213L279 213z"/>
<path style="fill:#638a9f; stroke:none;" d="M298 213L298 529L299 529L299 306L299 242L298 213z"/>
<path style="fill:#321715; stroke:none;" d="M307 213L307 321L310 317L319 318L319 323L320 323L320 213L307 213z"/>
<path style="fill:#3c647e; stroke:none;" d="M320 213L320 316L321 316L321 244L320 213z"/>
<path style="fill:#638a9f; stroke:none;" d="M330 213L330 458L330 511L331.028 530.397L345 532L345 531L331 531L331 306L331 242L330 213z"/>
<path style="fill:#321715; stroke:none;" d="M331 213L331 322L343 318L343 324L344 324L344 213L331 213z"/>
<path style="fill:#638a9f; stroke:none;" d="M344 213L345 214L344 213M356 213L356 458L356 514C356 522.307 353.295 531.873 364 532L364 531L357 531L357 306L357 242L356 213z"/>
<path style="fill:#321715; stroke:none;" d="M357 213L357 324L358 324L359 319L361 319L362 322L363 322L363 213L357 213z"/>
<path style="fill:#3c647e; stroke:none;" d="M363 213L363 320L364 320L364 246L363 213z"/>
<path style="fill:#321715; stroke:none;" d="M379 213L379 325L380 325C381.404 316.196 394.351 318.417 401 320C401 285.693 396.616 247.827 402 214L379 213z"/>
<path style="fill:#3c647e; stroke:none;" d="M401 213L402 214L401 213z"/>
<path style="fill:#638a9f; stroke:none;" d="M416 213L416 458L416 511L417.028 530.397L430 532L430 531L417 531L417 306L417 242L416 213z"/>
<path style="fill:#321715; stroke:none;" d="M417 213L417 326L418 326C419.14 318.701 424.07 319.338 430 321L430 213L417 213M440 213L440 321L443 319L443 324L444 324L444 213L440 213z"/>
<path style="fill:#3c647e; stroke:none;" d="M444 213L444 326L445 326L445 247L444 213z"/>
<path style="fill:#321715; stroke:none;" d="M455 213L455 329L456 329C456.048 315.527 471.022 317.177 481 321L481 213L455 213z"/>
<path style="fill:#638a9f; stroke:none;" d="M481 213L481 330L482 330L482 249L481 213M495 213L495 337L496 337L496 251C496 240.104 499.208 223.027 495 213z"/>
<path style="fill:#321715; stroke:none;" d="M496 213L496 319L509 321L509 213L496 213z"/>
<path style="fill:#638a9f; stroke:none;" d="M509 213L509 531L496 531L496 352L495 352L495 424L495 509C495 517.381 492.032 539.097 507.682 531.397C512.075 529.235 510 517.107 510 513L510 458L510 285L510 236C510 229.049 511.701 219.436 509 213M518 213L518 328L519 328L519 248L518 213z"/>
<path style="fill:#321715; stroke:none;" d="M519 213L519 285L520 321L523 319L523 324L524 324L524 213L519 213z"/>
<path style="fill:#638a9f; stroke:none;" d="M524 213L524 531L519 531L519 366L518 366L518 493L518 523C518.006 525.766 517.401 532.101 521.911 531.534C527.067 530.886 525 517.615 525 514L525 458L525 285L525 236C525 229.049 526.701 219.436 524 213M532 213L532 332L533 332L533 249L532 213z"/>
<path style="fill:#321715; stroke:none;" d="M533 213L533 327L534 327L537 319L537 324L538 324L538 213L533 213z"/>
<path style="fill:#638a9f; stroke:none;" d="M538 213L538 568L534 568L534 569L539 569L539 317L539 245L538 213z"/>
<path style="fill:#3c647e; stroke:none;" d="M548 213L548 319L549 319L549 245L548 213z"/>
<path style="fill:#321715; stroke:none;" d="M549 213L549 320L552 319L553 324L554 324L554 213L549 213z"/>
<path style="fill:#638a9f; stroke:none;" d="M554 213L554 568L548 568L548 569L555 569L555 317L555 245L554 213z"/>
<path style="fill:#3c647e; stroke:none;" d="M564 213L564 316L565 316L565 244L564 213z"/>
<path style="fill:#321715; stroke:none;" d="M565 213L565 321L566 321L585 318L585 326L586 326L586 213L565 213z"/>
<path style="fill:#638a9f; stroke:none;" d="M586 213L586 333L587 333L587 249L586 213z"/>
<path style="fill:#321715; stroke:none;" d="M597 213L597 328L598 328C598.094 320.079 602.749 316.967 610 321L611 285L611 213L597 213M625 213L625 328L626 328L629 319L629 325L630 325L630 213L625 213z"/>
<path style="fill:#3c647e; stroke:none;" d="M630 213L630 312L631 312L631 243L630 213z"/>
<path style="fill:#321715; stroke:none;" d="M640 213L640 285L641 320L654 318L656 323L657 323L657 213L640 213z"/>
<path style="fill:#3c647e; stroke:none;" d="M669 213L669 320L670 320L670 246L669 213z"/>
<path style="fill:#321715; stroke:none;" d="M670 213L670 322L671 322L671 319L677 319L677 326L678 326L678 213L670 213z"/>
<path style="fill:#638a9f; stroke:none;" d="M678 213L678 531L669 531L669 532L678.397 529.682L679 509L679 460L679 286L679 236L678 213z"/>
<path style="fill:#3c647e; stroke:none;" d="M686 213L687 214L686 213z"/>
<path style="fill:#321715; stroke:none;" d="M687 321L708 317L709 317L713 319L713 323L714 323L714 213C708.576 213 690.562 210.141 687.028 214.603C683.094 219.57 686 235.777 686 242C686 268.279 684.935 294.83 687 321z"/>
<path style="fill:#638a9f; stroke:none;" d="M714 213L714 531L686 531L686 532C691.297 532 711.82 534.919 714.397 529.682C717.13 524.127 715 513.135 715 507L715 452L715 284L715 235C715 228.314 716.599 219.194 714 213M723 213L723 532L733 532L733 531L724 531L724 306L724 242L723 213z"/>
<path style="fill:#321715; stroke:none;" d="M724 213L724 325L725 325C725.37 320.225 729.074 317.051 731 323C735.211 316.836 733 305.26 733 298L733 236C733 226.141 736.844 213.045 724 213z"/>
<path style="fill:#3c647e; stroke:none;" d="M732 213L733 214L732 213z"/>
<path style="fill:#638a9f; stroke:none;" d="M746 213L746 333L747 333L747 249L746 213z"/>
<path style="fill:#321715; stroke:none;" d="M747 213L747 328L748 328C748.061 322.88 749.13 320.409 753 317L755 325L756 325L756 213L747 213M763 213L763 327L764 327L767 321C767.563 293.709 768 266.365 768 239C768 232.268 771.446 214.409 763 213z"/>
<path style="fill:#3c647e; stroke:none;" d="M767 213L768 214L767 213z"/>
<path style="fill:#638a9f; stroke:none;" d="M786 213L786 569L793 569L793 568L787 568L787 317L787 245L786 213z"/>
<path style="fill:#321715; stroke:none;" d="M787 213L787 323L788 323L791 317L791 323L792 323L792 213L787 213z"/>
<path style="fill:#3c647e; stroke:none;" d="M792 213L792 321L793 321L793 246L792 213z"/>
<path style="fill:#638a9f; stroke:none;" d="M796 213L796 322L797 322L797 246L796 213z"/>
<path style="fill:#321715; stroke:none;" d="M797 213L797 286L798 322L800 319L801 326L802 326L802 213L797 213z"/>
<path style="fill:#638a9f; stroke:none;" d="M802 213L802 292L803 292L803 238L802 213z"/>
<path style="fill:#3c647e; stroke:none;" d="M344 214L344 311L345 311L345 244L344 214z"/>
<path style="fill:#638a9f; stroke:none;" d="M439 214L439 316L440 316L440 245L439 214z"/>
<path style="fill:#3c647e; stroke:none;" d="M401 215L401 219L402 219L401 215M233 216L233 219L234 219L233 216M251 216L251 291L252 291L252 239L251 216z"/>
<path style="fill:#638a9f; stroke:none;" d="M233 219L233 224L234 224L233 219z"/>
<path style="fill:#3c647e; stroke:none;" d="M233 224L234 225L233 224z"/>
<path style="fill:#638a9f; stroke:none;" d="M233 225L233 330L234 330L234 257L233 225z"/>
<path style="fill:#3c647e; stroke:none;" d="M401 225L401 313L402 313L402 252L401 225z"/>
<path style="fill:#638a9f; stroke:none;" d="M802 295L802 303L803 303L802 295z"/>
<path style="fill:#3c647e; stroke:none;" d="M251 301L251 304L252 304L251 301M251 305L251 319L252 319L251 305z"/>
<path style="fill:#638a9f; stroke:none;" d="M344.333 311.667L344.667 312.333L344.333 311.667M630 312L630 336L631 336L630 312z"/>
<path style="fill:#3c647e; stroke:none;" d="M344 313L345 314L344 313z"/>
<path style="fill:#b41515; stroke:none;" d="M401 313L401 320C396.803 318.76 384.225 316.846 380.988 320.603C377.601 324.535 379 333.226 379 338C379 354.392 377.857 370.988 382 387C387.38 386.001 396.843 387.869 400 383L401 383L401 394L402 394L402 338L401 313z"/>
<path style="fill:#638a9f; stroke:none;" d="M344.333 314.667L344.667 315.333L344.333 314.667z"/>
<path style="fill:#b41515; stroke:none;" d="M767 314L767 321C761.951 321.634 763 331.857 763 336C763 351.771 761.125 369.646 765 385L766 385L766 381L767 381L767 392L768 392L768 338L767 314M320 316L320 323L319 323L319 318L310 317C306.174 324.036 307 331.179 307 339C307 354.353 304.152 372.645 310 387L318 387L319 378L320 378L320 387L321 387L321 338L320 316z"/>
<path style="fill:#3c647e; stroke:none;" d="M344 316L345 317L344 316z"/>
<path style="fill:#b41515; stroke:none;" d="M564 316L564 394L565 394L565 383L566 383C569.567 387.954 579.42 385.066 585 386L585 318C579.406 319.332 569.461 316.055 566 321L565 321L564 316M686 316L686 392L687 392L687 381L688 381C688.747 390.432 706.226 386.107 713 385L713 319L709 317L708 317L687 321L686 316M255 317L253 323L252 323L252 319L251 319L251 391L252 391L252 380L253 380L253 385L254 385L254 382L255 382L255 390L256 390L256 340L255 317z"/>
<path style="fill:#638a9f; stroke:none;" d="M344 317L344 334L345 334L344 317z"/>
<path style="fill:#b41515; stroke:none;" d="M752 317C746.435 322.359 747 330.685 747 338C746.999 354.542 745.748 371.927 750 388L754 388C758.644 372.288 756 352.315 756 336C756 329.56 756.687 321.981 752 317M789 317C786.175 325.345 787 334.305 787 343C787 357.273 784.294 374.621 790 388L791 388L791 378L792 378L792 383L793 383L793 321L792 321L792 323L791 323L791 317L789 317M266 318C262.128 324.912 263 332.305 263 340L263 380L265 379L268 387L268 385L271 387L271 318L266 318M284 388L285 388L286 386L287 386L289 388L290 385L297 387L297 319C292.965 318.726 283.764 317.015 280.894 320.336C277.384 324.396 279 333.03 279 338C279 352.806 274.478 375.838 284 388M338 388L343 386L343 318C339.359 318.679 334.146 318.569 332.028 322.148C329.642 326.18 331 333.476 331 338C331 349.756 325.242 382.708 338 388M461 389L463 385C466.906 386.165 474.744 388.27 478.246 385.336C481.747 382.404 481 377.045 481 373L481 343C481 337.83 483.454 323.929 479.106 320.318C475.787 317.56 458.604 317.056 456.603 321.279C454.337 326.06 455 333.819 455 339C454.999 353.66 451.088 377.385 461 389M496 319L496 365C496 374.226 494.932 382.041 502 389L506 387C512.796 373.197 509 352.073 509 337C509 332.381 510.551 324.185 507.436 320.369C504.789 317.126 499.57 318.854 496 319M640 319L640 367L640.988 384.204L654 387L655 381L656 381L656 383L657 383L657 341C657 333.035 658.009 325.156 654 318L640 319M725 387L731 385L731 383L733 384L733 321L732 321L732 323C726.172 311.522 724.008 327.99 724 333C723.971 351.023 724.998 369.049 725 387M359 319C356.348 326.08 357 333.551 357 341C357 355.036 353.768 374.068 360 387L362 380L363 380L363 384L364 384L364 320L363 320L362 322L361 319L359 319M423 388C435.897 382.484 430 349.106 430 337C430 332.437 432.031 322.254 426.852 320.033C417.331 315.952 417.01 327.839 417 334C416.975 349.661 412.163 375.732 423 388z"/>
<path style="fill:#638a9f; stroke:none;" d="M439 319L440 320L439 319z"/>
<path style="fill:#b41515; stroke:none;" d="M442 319L440 341L442 388L443 388C443.002 367.308 451.606 338.512 442 319M522 319L519 320L519 384L520 384L520 381L521 381L521 386L523 386L524 341L522 319M536 319C529.141 331.657 531.576 357.925 533.424 372C534.063 376.865 532.767 383.778 537 387L538 341L536 319M548 319L548 384L551 386L552 386C556.109 373.007 554 357.495 554 344C554 335.669 554.966 326.92 552 319L548 319M606 388L609 380L610 380L610 383L611 383L611 320C607.948 320.109 601 316.695 598.5 320.167C596.113 323.483 597 332.958 597 337C597 348.419 596.903 359.721 598 371C598.802 379.251 596.806 385.034 606 388M627 319C621.908 340.145 625.314 363.643 627 385L629 385L629 319L627 319M671 322L670 322L670 320L669 320L669 384L670 384L670 381L671 381L671 386L674 385L677 388L677 319C673.806 319.013 671.729 318.597 671 322M799 319L797 321L797 383L798 383L798 380L799 380L799 385L801 385C801.002 369.703 802 354.362 802 339C802 332.625 803.072 324.293 799 319M220 320L220 384L221 384C226.532 370.889 223 351.111 223 337C223 331.186 224.223 324.507 220 320M229 320L229 380L231 379L231 384L232 384L232 320L229 320z"/>
<path style="fill:#638a9f; stroke:none;" d="M272 320L272 332L273 332L272 320M796 323L797 324L796 323M518 329L519 330L518 329M586 334L586 338L587 338L586 334M532 357L532 360L533 360L532 357M586 357L587 358L586 357M630 358L630 396L631 396C631 385.089 634.211 368.036 630 358M344 359L345 360L344 359M586 360L586 531L564 531L564 532C568.623 532 584.053 534.445 586.397 529.682C588.048 526.326 587 520.652 587 517L587 488L587 399C587 387.842 590.308 370.266 586 360M233 362L233 488L234 488L234 400C234 389.104 237.208 372.027 233 362M344 362L344 394L345 394L344 362M532 363L532 568L533 568L533 424L533 383L532 363M272 364L272 384L273 384L272 364M518 364L519 365L518 364M481 365L481 368L482 368L481 365M746 366L746 493L746 520L747.028 530.397L756 532L756 531L747 531L747 415C747 401.224 751.306 378.645 746 366z"/>
<path style="fill:#321715; stroke:none;" d="M455 368L455 531L481 531L481 383C474.825 386.67 470.103 386.696 463 385L461 389L455 368M597 368L597 531L611 531L611 433L610 380L609 380L606 388C596.312 382.549 600.594 376.564 597 368z"/>
<path style="fill:#638a9f; stroke:none;" d="M481 369L481 531L482 531L482 417C482 403.485 486.206 381.407 481 369z"/>
<path style="fill:#321715; stroke:none;" d="M763 369L763 568L768 568L767 381L766 381L766 385L765 385L763 369M625 370L625 531L630 531L630 377L629 377L629 385L627 385L625 370M747 370L747 531L756 531L756 372L755 372L754 388L750 388L747 370M533 372L533 568L538 568L538 376L537 376L537 387L533 372M219 373L219 568L223 568L223 380L222 380L221 384L220 384L219 373M379 373L379 531L401 531L401 383L400 383L382 387L379 373M417 373L417 531L430 531L430 383L423 388L417 373M585 373L585 386L566 383L565 383L565 531L586 531L586 420C586 406.747 590.107 385.169 585 373z"/>
<path style="fill:#3c647e; stroke:none;" d="M444 374L444 531L445 531L445 421C445 407.747 449.107 386.17 444 374z"/>
<path style="fill:#638a9f; stroke:none;" d="M796 374L797 375L796 374z"/>
<path style="fill:#321715; stroke:none;" d="M801 374L801 385L799 385L799 380L798 380L797 444L797 568L802 568L802 432L802 393L801 374M297 375L297 387L290 385L289 388L287 386L286 386L285 388L284 388L280 381L279 381L279 531L298 531L298 422C298 408.747 302.107 387.17 297 375M677 375L677 388L671 386L671 381L670 381L670 480L669 530L678 531L678 422C678 408.747 682.107 387.169 677 375M343 376L343 386L338 388L332 381L331 381L331 531L344 531L344 422C344 409.009 348.007 387.932 343 376z"/>
<path style="fill:#638a9f; stroke:none;" d="M439 376L440 377L439 376z"/>
<path style="fill:#321715; stroke:none;" d="M724 376L724 531L733 531L733 431C733 416.243 736.182 397.146 732 383L729 384L725 387L724 376z"/>
<path style="fill:#638a9f; stroke:none;" d="M796 376L796 568L797 568L797 433L797 394L796 376z"/>
<path style="fill:#321715; stroke:none;" d="M232 377L232 384L231 384L231 379L230 379C224.832 396.485 229 420.739 229 439L229 568L233 568L233 434L233 395L232 377M271 377L271 387L268 385L268 387L265 379L264 379L264 568L272 568L272 434L272 395L271 377M357 377L357 531L363 531L363 380L362 380L360 387L357 377M443 377L443 388L442 388L441 382L440 382L440 531L444 531L444 423C444 410.009 448.007 388.932 443 377M319 378L318 387L310 387L308 381L307 381L307 531L320 531L320 424C320 411.009 324.007 389.932 319 378M791 378L791 388L790 388L788 379L787 379L787 568L792 568L792 435L792 396L791 378z"/>
<path style="fill:#638a9f; stroke:none;" d="M439 379L439 531L440 531L440 425C440 412.009 444.007 390.932 439 379z"/>
<path style="fill:#321715; stroke:none;" d="M553 379L552 386L551 386L550 383L549 383L549 568L554 568L554 435L554 397L553 379M713 379L713 385C706.063 385.387 689.343 390.466 688 381L687 381C686.996 417.243 686 453.672 686 490L686 518C686 521.122 684.954 526.779 687.028 529.397C690.562 533.859 708.576 531 714 531L714 425C714 412.009 718.007 390.932 713 379M252 380L252 506C252 525.528 255.524 548.997 251 568L256 568L255 382L254 382L254 385L253 385L252 380z"/>
<path style="fill:#3c647e; stroke:none;" d="M263 380L263 568L264 568L264 436L264 398L263 380z"/>
<path style="fill:#321715; stroke:none;" d="M508 380L507 387L506 387L505 385L502 389L497 382L496 382L496 531L509 531L509 425C509 412.27 512.907 391.694 508 380M523 380L523 386L521 386L521 381L520 381L519 433L519 531L524 531L524 425C524 412.271 527.907 391.694 523 380M655 381L654 387L640 385L640 531L657 531L657 423C657 412.177 661.164 390.023 655 381z"/>
<path style="fill:#3c647e; stroke:none;" d="M792 383L792 568L793 568L793 438L793 401L792 383M272 384L273 385L272 384M363 384L363 531L364 531L364 428C364 415.532 367.807 395.456 363 384M548 384L548 568L549 568L549 439L549 402L548 384M669 384L669 529L670 529L670 428C670 415.532 673.807 395.456 669 384z"/>
<path style="fill:#638a9f; stroke:none;" d="M272 385L273 386L272 385z"/>
<path style="fill:#3c647e; stroke:none;" d="M272 386L272 568L273 568L273 440L273 404L272 386M320 387L320 531L321 531L321 430C321 417.794 324.707 398.218 320 387M251 391L252 392L251 391M251 394L251 414L252 414L251 394M344 394L344 531L345 531L345 435C345 423.318 348.507 404.742 344 394M401 394L401 512L402 512L402 430L401 394M564 394L564 531L565 531L565 435C565 423.318 568.508 404.742 564 394M630 396L630 531L631 531L631 437C631 425.318 634.508 406.742 630 396z"/>
<path style="fill:#638a9f; stroke:none;" d="M802 408L802 568L803 568L803 456C803 442.485 807.206 420.407 802 408z"/>
<path style="fill:#3c647e; stroke:none;" d="M251.333 416.667L251.667 417.333L251.333 416.667M251 431L251 567L252 567L252 472C252 460.318 255.507 441.742 251 431M233 488L233 497L234 497L233 488z"/>
<path style="fill:#638a9f; stroke:none;" d="M233 497L233 559L234 559L234 517L233 497z"/>
<path style="fill:#3c647e; stroke:none;" d="M129 517L129 520L130 520L129 517M401 520L401 531L402 531L401 520M298 529L299 530L298 529M669 530L670 531L669 530M686 530L687 531L686 530z"/>
<path style="fill:#638a9f; stroke:none;" d="M307 531L307 532L321 532L307 531M379 531L379 532L402 532L379 531M440 531L440 532L445 532L440 531M455 531L455 532L481 532L455 531M597 531L597 532L611 532L597 531M625 531L625 532L631 532L625 531M640 531L640 532L657 532L640 531M193 552L194 553L193 552z"/>
<path style="fill:#3c647e; stroke:none;" d="M194 552L194 553L199 553L194 552z"/>
<path style="fill:#638a9f; stroke:none;" d="M199 552L200 553L199 552M295.667 552.333L296.333 552.667L295.667 552.333z"/>
<path style="fill:#3c647e; stroke:none;" d="M297 552L297 553L301 553L297 552z"/>
<path style="fill:#638a9f; stroke:none;" d="M301.667 552.333L302.333 552.667L301.667 552.333M355.667 552.333L356.333 552.667L355.667 552.333z"/>
<path style="fill:#3c647e; stroke:none;" d="M357.667 552.333L358.333 552.667L357.667 552.333z"/>
<path style="fill:#638a9f; stroke:none;" d="M359 552L356 556L356 557C358.85 556.063 359.983 554.988 359 552M425 552L426 553L425 552z"/>
<path style="fill:#3c647e; stroke:none;" d="M426 552L426 553L431 553L426 552z"/>
<path style="fill:#638a9f; stroke:none;" d="M431.667 552.333L432.333 552.667L431.667 552.333M452 552L453 553L452 552z"/>
<path style="fill:#3c647e; stroke:none;" d="M453 552L453 553L458 553L453 552z"/>
<path style="fill:#638a9f; stroke:none;" d="M458.667 552.333L459.333 552.667L458.667 552.333M506 552L507 553L506 552z"/>
<path style="fill:#3c647e; stroke:none;" d="M507 552L507 553L511 553L507 552z"/>
<path style="fill:#638a9f; stroke:none;" d="M511.667 552.333L512.333 552.667L511.667 552.333M600.667 552.333L601.333 552.667L600.667 552.333z"/>
<path style="fill:#3c647e; stroke:none;" d="M602 552L602 553L606 553L602 552z"/>
<path style="fill:#638a9f; stroke:none;" d="M606.667 552.333L607.333 552.667L606.667 552.333M626 552L627 553L626 552z"/>
<path style="fill:#3c647e; stroke:none;" d="M627 552L627 553L632 553L627 552z"/>
<path style="fill:#638a9f; stroke:none;" d="M632.667 552.333L633.333 552.667L632.667 552.333M713.667 552.333L714.333 552.667L713.667 552.333z"/>
<path style="fill:#3c647e; stroke:none;" d="M715 552L715 553L718 553L715 552M191 553L192 554L191 553z"/>
<path style="fill:#321715; stroke:none;" d="M203 572C200.023 578.765 195.487 582.611 188 583L188 586C195.697 585.978 202.747 583.916 205.852 576C208.837 568.389 208.26 554.118 198 553.113C187.667 552.1 179.785 567.025 190.109 572.821C194.193 575.114 198.978 573.466 203 572z"/>
<path style="fill:#3c647e; stroke:none;" d="M201 553L202 554L201 553z"/>
<path style="fill:#638a9f; stroke:none;" d="M293 553L294 554L293 553z"/>
<path style="fill:#321715; stroke:none;" d="M294 569C282.943 575.068 289.35 587.853 301 586.146C310.789 584.712 312.115 573.513 304 569L304 567C324.37 556.027 279.481 544.303 290.155 564.885C291.076 566.66 292.521 567.732 294 569z"/>
<path style="fill:#638a9f; stroke:none;" d="M304 553L305 554L304 553M314 553L314 557L315 557L314 553z"/>
<path style="fill:#321715; stroke:none;" d="M315 553L316 557L331 557L317 586C326.135 584.513 334.499 561.42 336 553L315 553z"/>
<path style="fill:#638a9f; stroke:none;" d="M351 553L352 554L351 553z"/>
<path style="fill:#3c647e; stroke:none;" d="M352 553L353 554L352 553z"/>
<path style="fill:#321715; stroke:none;" d="M344 567C347.771 561.07 351.726 556.75 359 556L359 553C350.296 553.185 343.364 557.164 340.928 566C338.677 574.165 340.659 585.618 351 585.941C361.809 586.278 367.362 570.735 356.956 565.576C352.471 563.353 348.271 565.356 344 567z"/>
<path style="fill:#3c647e; stroke:none;" d="M370.333 553.667L370.667 554.333L370.333 553.667z"/>
<path style="fill:#321715; stroke:none;" d="M369 569C376.747 567.494 388.742 576.264 377.956 581.971C374.626 583.734 370.507 582.443 367 582C371.979 596.161 400.617 573.903 379.996 565.894C377.464 564.91 374.666 565.022 372 565C374.62 556.501 377.199 556.001 386 556L386 553C372.253 553 369.298 554.567 369 569z"/>
<path style="fill:#3c647e; stroke:none;" d="M386 553C383.52 556.825 379.192 556 375 556L375 557C378.431 557 387.208 558.38 386 553z"/>
<path style="fill:#638a9f; stroke:none;" d="M405 553L406 554L405 553z"/>
<path style="fill:#321715; stroke:none;" d="M392 577L407 577L407 586L411 586L411 577L415 577L415 574L411 574L411 553C402.121 553.675 392.904 568.676 392 577z"/>
<path style="fill:#638a9f; stroke:none;" d="M411 553L412 574L413 574L411 553M422 553L423 554L422 553z"/>
<path style="fill:#321715; stroke:none;" d="M421 557C432.953 555.497 437.461 564.972 424 567L424 570C429.582 570.166 439.689 575.516 431.851 581.397C428.234 584.111 423.117 582.108 419 583L419 584C431.863 590.295 448.705 576.613 433 568C447.156 556.335 424.543 546.926 421 557z"/>
<path style="fill:#638a9f; stroke:none;" d="M434 553L435 554L434 553M449 553L450 554L449 553z"/>
<path style="fill:#321715; stroke:none;" d="M447 558C448.942 557.487 451.002 556.636 453.005 556.434C458.29 555.9 462.271 561.01 460.333 566C457.274 573.877 448.466 578.228 445 586L467 586L467 583L452 583C456.991 576.743 467.611 569.285 465.387 560.001C463.459 551.95 449.63 549.674 447 558z"/>
<path style="fill:#638a9f; stroke:none;" d="M461 553L462 554L461 553M480 553L481 554L480 553z"/>
<path style="fill:#321715; stroke:none;" d="M475 560L481 557L482 586L486 586C484.131 575.935 483.621 562.994 486 553C480.738 553.274 476.59 554.63 475 560z"/>
<path style="fill:#638a9f; stroke:none;" d="M503 553L500 557L503 553z"/>
<path style="fill:#321715; stroke:none;" d="M504.044 554.028C491.989 560.446 497.448 593.955 513.895 584.821C525.667 578.283 520.447 545.295 504.044 554.028z"/>
<path style="fill:#638a9f; stroke:none;" d="M514 553L515 554L514 553M576 553L577 554L576 553z"/>
<path style="fill:#321715; stroke:none;" d="M571 560L577 557L578 586L582 586C579.702 576.347 579.702 562.653 582 553C576.738 553.274 572.59 554.63 571 560z"/>
<path style="fill:#638a9f; stroke:none;" d="M597 553L598 554L597 553z"/>
<path style="fill:#3c647e; stroke:none;" d="M598 553L599 554L598 553z"/>
<path style="fill:#321715; stroke:none;" d="M595 555L595 557L596 558C597.942 557.487 600.001 556.637 602.004 556.434C607.515 555.875 610.646 561.116 608.756 566C605.66 574.003 596.334 577.683 594 586L615 586L615 583L601 583C604.981 577.348 611.291 572.868 613.351 566C617.273 552.926 603.92 551.749 595 555z"/>
<path style="fill:#3c647e; stroke:none;" d="M609 553L610 554L609 553z"/>
<path style="fill:#638a9f; stroke:none;" d="M610 553L611 554L610 553M623 553L624 554L623 553z"/>
<path style="fill:#321715; stroke:none;" d="M622 558C634.242 553.547 638.241 565.005 625 567L625 570C640.461 570.804 635.352 586.231 621 581L620 585C625.477 586.129 630.677 587.596 635.895 584.558C643.637 580.05 640.545 571.499 634 568C648.922 555.703 623.919 546.947 622 558z"/>
<path style="fill:#638a9f; stroke:none;" d="M635 553L636 554L635 553z"/>
<path style="fill:#321715; stroke:none;" d="M645 577C653.592 577 660.58 575.41 660 586L665 586L665 577L669 577L669 574L665 574L665 553C655.997 553.298 646.223 568.617 645 577z"/>
<path style="fill:#3c647e; stroke:none;" d="M676 553L676 556L677 556L676 553z"/>
<path style="fill:#321715; stroke:none;" d="M677 553L675 569C682.703 567.503 694.604 576.254 683.945 581.971C680.636 583.746 676.49 582.441 673 582C678.089 596.475 706.486 573.852 685.996 565.894C683.464 564.91 680.666 565.022 678 565C680.645 556.933 683.747 556.279 692 557L692 553L677 553z"/>
<path style="fill:#3c647e; stroke:none;" d="M692 553L692 556L693 556L692 553z"/>
<path style="fill:#638a9f; stroke:none;" d="M709.667 553.333L710.333 553.667L709.667 553.333z"/>
<path style="fill:#321715; stroke:none;" d="M703 567C706.2 560.279 710.498 556.66 718 556L718 553C710.006 553.071 702.937 555.881 700.109 564C697.306 572.048 698.243 585.428 709 586.231C720.5 587.09 726.325 569.571 714.957 565.163C710.788 563.547 706.87 565.51 703 567z"/>
<path style="fill:#638a9f; stroke:none;" d="M725 553L725 557L726 557L725 553z"/>
<path style="fill:#321715; stroke:none;" d="M726 553C728.01 558.718 736.193 557.421 741 556L742 557L728 586C737.077 585.277 745.577 561.264 747 553L726 553z"/>
<path style="fill:#638a9f; stroke:none;" d="M189 554L190 555L189 554M203 554L204 555L203 554M291 554L292 555L291 554M349 554L350 555L349 554M420 554L421 555L420 554M447 554L448 555L447 554z"/>
<path style="fill:#3c647e; stroke:none;" d="M462 554L463 555L462 554z"/>
<path style="fill:#638a9f; stroke:none;" d="M478 554L479 555L478 554z"/>
<path style="fill:#3c647e; stroke:none;" d="M485 554L485 584L486 584L485 554z"/>
<path style="fill:#638a9f; stroke:none;" d="M515 554L516 555L515 554M574 554L575 555L574 554z"/>
<path style="fill:#3c647e; stroke:none;" d="M581 554L581 585L582 585L581 554M596 554L597 555L596 554z"/>
<path style="fill:#638a9f; stroke:none;" d="M611 554L612 555L611 554M621 554L622 555L621 554M637 554L638 555L637 554z"/>
<path style="fill:#3c647e; stroke:none;" d="M658 554L659 555L658 554z"/>
<path style="fill:#638a9f; stroke:none;" d="M707 554L708 555L707 554z"/>
<path style="fill:#3c647e; stroke:none;" d="M708 554L709 555L708 554z"/>
<path style="fill:#638a9f; stroke:none;" d="M188 555L189 556L188 555M204 555L205 556L204 555M290 555L291 556L290 555z"/>
<path style="fill:#3c647e; stroke:none;" d="M297 555L297 556L300 556L297 555z"/>
<path style="fill:#638a9f; stroke:none;" d="M347 555L348 556L347 555z"/>
<path style="fill:#3c647e; stroke:none;" d="M420 555L421 556L420 555z"/>
<path style="fill:#638a9f; stroke:none;" d="M446 555L447 556L446 555z"/>
<path style="fill:#3c647e; stroke:none;" d="M463 555L464 556L463 555z"/>
<path style="fill:#638a9f; stroke:none;" d="M476 555L477 556L476 555M516 555L517 556L516 555M572 555L573 556L572 555M612 555L613 556L612 555z"/>
<path style="fill:#3c647e; stroke:none;" d="M621 555L622 556L621 555z"/>
<path style="fill:#638a9f; stroke:none;" d="M657 555L658 556L657 555z"/>
<path style="fill:#3c647e; stroke:none;" d="M706 555L707 556L706 555M193 556L194 557L193 556z"/>
<path style="fill:#638a9f; stroke:none;" d="M194 556L195 557L194 556z"/>
<path style="fill:#f6f5f5; stroke:none;" d="M195.04 556.851C187.43 559.078 190.011 572.263 197.981 569.998C205.6 567.833 202.359 554.709 195.04 556.851z"/>
<path style="fill:#638a9f; stroke:none;" d="M198 556L199 557L198 556z"/>
<path style="fill:#3c647e; stroke:none;" d="M199 556L200 557L199 556z"/>
<path style="fill:#638a9f; stroke:none;" d="M205 556L206 557L205 556M295 556L294 558L295 556z"/>
<path style="fill:#f6f5f5; stroke:none;" d="M296.317 557.043C291.636 559.997 295.783 567.59 300.852 564.928C306.521 561.951 301.57 553.728 296.317 557.043z"/>
<path style="fill:#638a9f; stroke:none;" d="M301 556L302 557L301 556z"/>
<path style="fill:#3c647e; stroke:none;" d="M302 556L303 557L302 556M315 556L316 557L315 556M318 556L318 557L330 557L318 556M335 556L336 557L335 556M346 556L347 557L346 556M354.667 556.333L355.333 556.667L354.667 556.333z"/>
<path style="fill:#638a9f; stroke:none;" d="M386 556L387 557L386 556z"/>
<path style="fill:#3c647e; stroke:none;" d="M403 556L404 557L403 556z"/>
<path style="fill:#638a9f; stroke:none;" d="M420 556L421 557L420 556z"/>
<path style="fill:#3c647e; stroke:none;" d="M424 556L425 557L424 556z"/>
<path style="fill:#638a9f; stroke:none;" d="M425 556L425 557L431 557L425 556z"/>
<path style="fill:#3c647e; stroke:none;" d="M437 556L438 557L437 556M446 556L447 557L446 556M451 556L452 557L451 556z"/>
<path style="fill:#638a9f; stroke:none;" d="M452.667 556.333L453.333 556.667L452.667 556.333M455.667 556.333L456.333 556.667L455.667 556.333z"/>
<path style="fill:#3c647e; stroke:none;" d="M457 556L458 557L457 556z"/>
<path style="fill:#638a9f; stroke:none;" d="M464 556L465 557L464 556M474.333 556.667L474.667 557.333L474.333 556.667z"/>
<path style="fill:#3c647e; stroke:none;" d="M475 556L476 557L475 556M506 556L507 557L506 556z"/>
<path style="fill:#638a9f; stroke:none;" d="M507 556L508 557L507 556z"/>
<path style="fill:#f6f5f5; stroke:none;" d="M508.029 556.971C499.111 558.936 500.473 584.537 509.896 582.11C517.909 580.045 517.096 554.972 508.029 556.971z"/>
<path style="fill:#638a9f; stroke:none;" d="M510 556L511 557L510 556z"/>
<path style="fill:#3c647e; stroke:none;" d="M511 556L512 557L511 556z"/>
<path style="fill:#638a9f; stroke:none;" d="M517 556L518 557L517 556M570.333 556.667L570.667 557.333L570.333 556.667z"/>
<path style="fill:#3c647e; stroke:none;" d="M571 556L572 557L571 556M600 556L601 557L600 556z"/>
<path style="fill:#638a9f; stroke:none;" d="M601.667 556.333L602.333 556.667L601.667 556.333M604.667 556.333L605.333 556.667L604.667 556.333z"/>
<path style="fill:#3c647e; stroke:none;" d="M606 556L607 557L606 556z"/>
<path style="fill:#638a9f; stroke:none;" d="M621 556L622 557L621 556z"/>
<path style="fill:#3c647e; stroke:none;" d="M625 556L626 557L625 556z"/>
<path style="fill:#638a9f; stroke:none;" d="M626 556L626 557L632 557L626 556z"/>
<path style="fill:#3c647e; stroke:none;" d="M638 556L639 557L638 556M681 556L682 557L681 556M686 556L687 557L686 556M690 556L691 557L690 556z"/>
<path style="fill:#638a9f; stroke:none;" d="M692 556L693 557L692 556M704 556L705 557L704 556z"/>
<path style="fill:#3c647e; stroke:none;" d="M713 556L714 557L713 556z"/>
<path style="fill:#638a9f; stroke:none;" d="M714 556L714 557L718 557L714 556z"/>
<path style="fill:#3c647e; stroke:none;" d="M726.667 556.333L727.333 556.667L726.667 556.333M740 556L741 557L740 556M746 556L747 557L746 556z"/>
<path style="fill:#638a9f; stroke:none;" d="M192 557L193 558L192 557z"/>
<path style="fill:#3c647e; stroke:none;" d="M200 557L201 558L200 557M289 557L290 558L289 557M330 557L331 558L330 557M345 557L346 558L345 557z"/>
<path style="fill:#638a9f; stroke:none;" d="M352 557L353 558L352 557M369 557L369 560L370 560L369 557z"/>
<path style="fill:#3c647e; stroke:none;" d="M373.333 557.667L373.667 558.333L373.333 557.667z"/>
<path style="fill:#638a9f; stroke:none;" d="M402 557L403 558L402 557z"/>
<path style="fill:#3c647e; stroke:none;" d="M421.667 557.333L422.333 557.667L421.667 557.333z"/>
<path style="fill:#638a9f; stroke:none;" d="M423 557L424 558L423 557z"/>
<path style="fill:#3c647e; stroke:none;" d="M432 557L433 558L432 557z"/>
<path style="fill:#638a9f; stroke:none;" d="M438.333 557.667L438.667 558.333L438.333 557.667z"/>
<path style="fill:#3c647e; stroke:none;" d="M449 557L450 558L449 557z"/>
<path style="fill:#638a9f; stroke:none;" d="M450 557L451 558L450 557M458 557L459 558L458 557z"/>
<path style="fill:#3c647e; stroke:none;" d="M480 557L481 558L480 557z"/>
<path style="fill:#638a9f; stroke:none;" d="M505 557L506 558L505 557z"/>
<path style="fill:#3c647e; stroke:none;" d="M512 557L513 558L512 557M576 557L577 558L576 557M595 557L596 558L595 557z"/>
<path style="fill:#638a9f; stroke:none;" d="M598 557L599 558L598 557M607 557L608 558L607 557M613 557L614 558L613 557z"/>
<path style="fill:#3c647e; stroke:none;" d="M623 557L624 558L623 557z"/>
<path style="fill:#638a9f; stroke:none;" d="M624 557L625 558L624 557z"/>
<path style="fill:#3c647e; stroke:none;" d="M633 557L634 558L633 557M656 557L657 558L656 557z"/>
<path style="fill:#638a9f; stroke:none;" d="M675 557L675 561L676 561L675 557M703 557L704 558L703 557z"/>
<path style="fill:#3c647e; stroke:none;" d="M710 557L711 558L710 557z"/>
<path style="fill:#638a9f; stroke:none;" d="M711 557L712 558L711 557M741 557L742 558L741 557M746 557L747 558L746 557M186 558L187 559L186 558M191 558L192 559L191 558z"/>
<path style="fill:#3c647e; stroke:none;" d="M201 558L202 559L201 558z"/>
<path style="fill:#638a9f; stroke:none;" d="M206 558L207 559L206 558z"/>
<path style="fill:#3c647e; stroke:none;" d="M293 558L294 559L293 558z"/>
<path style="fill:#638a9f; stroke:none;" d="M303 558L304 559L303 558M308 558L309 559L308 558z"/>
<path style="fill:#3c647e; stroke:none;" d="M334 558L335 559L334 558M344 558L345 559L344 558z"/>
<path style="fill:#638a9f; stroke:none;" d="M350 558L351 559L350 558M406 558L405 574L406 574L406 558z"/>
<path style="fill:#3c647e; stroke:none;" d="M447 558L448 559L447 558z"/>
<path style="fill:#638a9f; stroke:none;" d="M448 558L449 559L448 558M465 558L466 559L465 558z"/>
<path style="fill:#3c647e; stroke:none;" d="M478 558L479 559L478 558z"/>
<path style="fill:#638a9f; stroke:none;" d="M479 558L480 559L479 558z"/>
<path style="fill:#3c647e; stroke:none;" d="M481 558L481 586L482 586L481 558z"/>
<path style="fill:#638a9f; stroke:none;" d="M499 558L500 559L499 558z"/>
<path style="fill:#3c647e; stroke:none;" d="M504 558L505 559L504 558z"/>
<path style="fill:#638a9f; stroke:none;" d="M518 558L519 559L518 558z"/>
<path style="fill:#3c647e; stroke:none;" d="M574 558L575 559L574 558z"/>
<path style="fill:#638a9f; stroke:none;" d="M575 558L576 559L575 558z"/>
<path style="fill:#3c647e; stroke:none;" d="M577 558L577 586L578 586L577 558M596 558L597 559L596 558M608 558L609 559L608 558M634 558L635 559L634 558z"/>
<path style="fill:#638a9f; stroke:none;" d="M639 558L640 559L639 558M655 558L656 559L655 558z"/>
<path style="fill:#3c647e; stroke:none;" d="M659 558L660 561L661 561L659 558M679 558L680 559L679 558M708 558L709 559L708 558z"/>
<path style="fill:#638a9f; stroke:none;" d="M709 558L710 559L709 558z"/>
<path style="fill:#3c647e; stroke:none;" d="M745 558L746 559L745 558z"/>
<path style="fill:#638a9f; stroke:none;" d="M201 559L202 560L201 559z"/>
<path style="fill:#3c647e; stroke:none;" d="M206 559L207 560L206 559M233 559L233 568L234 568L233 559z"/>
<path style="fill:#638a9f; stroke:none;" d="M293 559L293 563L294 563L293 559z"/>
<path style="fill:#3c647e; stroke:none;" d="M308 559L309 560L308 559M329 559L330 560L329 559z"/>
<path style="fill:#638a9f; stroke:none;" d="M343 559L344 560L343 559M349 559L350 560L349 559M373 559L373 562L374 562L373 559z"/>
<path style="fill:#3c647e; stroke:none;" d="M401 559L402 560L401 559z"/>
<path style="fill:#638a9f; stroke:none;" d="M433 559L434 560L433 559z"/>
<path style="fill:#3c647e; stroke:none;" d="M438 559L438 562L439 562L438 559z"/>
<path style="fill:#638a9f; stroke:none;" d="M460 559L461 560L460 559z"/>
<path style="fill:#3c647e; stroke:none;" d="M465 559L466 560L465 559M476 559L477 560L476 559z"/>
<path style="fill:#638a9f; stroke:none;" d="M477 559L478 560L477 559M513 559L514 560L513 559z"/>
<path style="fill:#3c647e; stroke:none;" d="M518 559L519 560L518 559M572 559L573 560L572 559z"/>
<path style="fill:#638a9f; stroke:none;" d="M573 559L574 560L573 559M634 559L634 563L635 563L634 559z"/>
<path style="fill:#3c647e; stroke:none;" d="M639.333 559.667L639.667 560.333L639.333 559.667z"/>
<path style="fill:#f6f5f5; stroke:none;" d="M659 559L651 573L660 573L659 559z"/>
<path style="fill:#638a9f; stroke:none;" d="M679 559L679 563L680 563L679 559z"/>
<path style="fill:#3c647e; stroke:none;" d="M707 559L708 560L707 559z"/>
<path style="fill:#638a9f; stroke:none;" d="M740 559L741 560L740 559M745 559L746 560L745 559M185.333 560.667L185.667 561.333L185.333 560.667M190 560L191 561L190 560z"/>
<path style="fill:#3c647e; stroke:none;" d="M202 560L203 561L202 560z"/>
<path style="fill:#638a9f; stroke:none;" d="M288 560L288 563L289 563L288 560z"/>
<path style="fill:#3c647e; stroke:none;" d="M333 560L334 561L333 560z"/>
<path style="fill:#638a9f; stroke:none;" d="M348 560L349 561L348 560z"/>
<path style="fill:#3c647e; stroke:none;" d="M369 560L369 563L370 563L369 560z"/>
<path style="fill:#638a9f; stroke:none;" d="M400 560L401 561L400 560z"/>
<path style="fill:#f6f5f5; stroke:none;" d="M405 560L397 573L406 573L405 560z"/>
<path style="fill:#638a9f; stroke:none;" d="M498 560L499 561L498 560z"/>
<path style="fill:#3c647e; stroke:none;" d="M503 560L504 561L503 560M514.333 560.667L514.667 561.333L514.333 560.667M609 560L610 561L609 560z"/>
<path style="fill:#638a9f; stroke:none;" d="M614 560L614 564L615 564L614 560z"/>
<path style="fill:#3c647e; stroke:none;" d="M654 560L655 561L654 560M658 560L659 561L658 560z"/>
<path style="fill:#638a9f; stroke:none;" d="M701 560L702 561L701 560z"/>
<path style="fill:#3c647e; stroke:none;" d="M706 560L707 561L706 560z"/>
<path style="fill:#638a9f; stroke:none;" d="M202.333 561.667L202.667 562.333L202.333 561.667M207.333 561.667L207.667 562.333L207.333 561.667M328 561L329 562L328 561z"/>
<path style="fill:#3c647e; stroke:none;" d="M342 561L343 562L342 561z"/>
<path style="fill:#638a9f; stroke:none;" d="M347 561L348 562L347 561z"/>
<path style="fill:#3c647e; stroke:none;" d="M404 561L405 562L404 561M498 561L499 562L498 561z"/>
<path style="fill:#638a9f; stroke:none;" d="M519.333 561.667L519.667 562.333L519.333 561.667M609 561L609 564L610 564L609 561M639.333 561.667L639.667 562.333L639.333 561.667M653 561L654 562L653 561M658 561L659 562L658 561z"/>
<path style="fill:#3c647e; stroke:none;" d="M675.333 561.667L675.667 562.333L675.333 561.667z"/>
<path style="fill:#638a9f; stroke:none;" d="M700 561L701 562L700 561M739 561L740 562L739 561M744 561L745 562L744 561z"/>
<path style="fill:#3c647e; stroke:none;" d="M185 562L186 563L185 562M308 562L309 563L308 562M332 562L333 563L332 562M346 562L347 563L346 562M399 562L400 563L399 562z"/>
<path style="fill:#638a9f; stroke:none;" d="M433 562L434 563L433 562M438 562L439 563L438 562z"/>
<path style="fill:#3c647e; stroke:none;" d="M461.333 562.667L461.667 563.333L461.333 562.667z"/>
<path style="fill:#638a9f; stroke:none;" d="M514 562L515 563L514 562M652 562L653 563L652 562M657 562L658 563L657 562z"/>
<path style="fill:#3c647e; stroke:none;" d="M700 562L701 563L700 562z"/>
<path style="fill:#638a9f; stroke:none;" d="M705 562L706 563L705 562z"/>
<path style="fill:#3c647e; stroke:none;" d="M207 563L207 570L208 570L207 563M293 563L294 564L293 563z"/>
<path style="fill:#638a9f; stroke:none;" d="M303 563L304 564L303 563M308 563L309 564L308 563M327 563L328 564L327 563z"/>
<path style="fill:#3c647e; stroke:none;" d="M341 563L342 564L341 563z"/>
<path style="fill:#638a9f; stroke:none;" d="M398 563L399 564L398 563M403 563L404 564L403 563z"/>
<path style="fill:#3c647e; stroke:none;" d="M502 563L503 564L502 563M519 563L520 564L519 563M656 563L657 564L656 563M660 563L661 564L660 563z"/>
<path style="fill:#638a9f; stroke:none;" d="M704 563L703 566L703 567L706 566L704 563M738 563L739 564L738 563M743 563L744 564L743 563z"/>
<path style="fill:#3c647e; stroke:none;" d="M289 564L290 565L289 564M294 564L295 565L294 564z"/>
<path style="fill:#638a9f; stroke:none;" d="M302 564L303 565L302 564z"/>
<path style="fill:#3c647e; stroke:none;" d="M331 564L332 565L331 564z"/>
<path style="fill:#638a9f; stroke:none;" d="M345 564L346 565L345 564M349 564L350 565L349 564z"/>
<path style="fill:#3c647e; stroke:none;" d="M350 564L351 565L350 564M354.667 564.333L355.333 564.667L354.667 564.333z"/>
<path style="fill:#638a9f; stroke:none;" d="M356 564L357 565L356 564M368 564L368 569L369 569L368 564z"/>
<path style="fill:#3c647e; stroke:none;" d="M372 564L373 565L372 564M402 564L403 565L402 564M432 564L433 565L432 564z"/>
<path style="fill:#638a9f; stroke:none;" d="M437 564L438 565L437 564z"/>
<path style="fill:#3c647e; stroke:none;" d="M465 564L466 565L465 564z"/>
<path style="fill:#638a9f; stroke:none;" d="M497 564L497 567L498 567L497 564M502 564L502 567L503 567L502 564z"/>
<path style="fill:#3c647e; stroke:none;" d="M609 564L610 565L609 564M633 564L634 565L633 564z"/>
<path style="fill:#638a9f; stroke:none;" d="M638 564L639 565L638 564M651 564L652 565L651 564M656 564L657 565L656 564z"/>
<path style="fill:#3c647e; stroke:none;" d="M678 564L679 565L678 564z"/>
<path style="fill:#638a9f; stroke:none;" d="M699 564L700 565L699 564M707 564L708 565L707 564z"/>
<path style="fill:#3c647e; stroke:none;" d="M708.667 564.333L709.333 564.667L708.667 564.333M713 564L714 565L713 564z"/>
<path style="fill:#638a9f; stroke:none;" d="M714 564L715 565L714 564z"/>
<path style="fill:#3c647e; stroke:none;" d="M185 565L186 566L185 565M295 565L296 566L295 565z"/>
<path style="fill:#638a9f; stroke:none;" d="M296 565L297 566L296 565M301 565L302 566L301 565M326 565L327 566L326 565M331 565L332 566L331 565M340.333 565.667L340.667 566.333L340.333 565.667z"/>
<path style="fill:#3c647e; stroke:none;" d="M347 565L348 566L347 565M357 565L358 566L357 565z"/>
<path style="fill:#638a9f; stroke:none;" d="M358 565L359 566L358 565z"/>
<path style="fill:#3c647e; stroke:none;" d="M379 565L380 566L379 565z"/>
<path style="fill:#638a9f; stroke:none;" d="M380 565L381 566L380 565z"/>
<path style="fill:#3c647e; stroke:none;" d="M397 565L398 566L397 565z"/>
<path style="fill:#638a9f; stroke:none;" d="M430 565L431 566L430 565z"/>
<path style="fill:#3c647e; stroke:none;" d="M436 565L437 566L436 565z"/>
<path style="fill:#638a9f; stroke:none;" d="M460 565L461 566L460 565M465.333 565.667L465.667 566.333L465.333 565.667z"/>
<path style="fill:#3c647e; stroke:none;" d="M515 565L515 574L516 574L515 565z"/>
<path style="fill:#638a9f; stroke:none;" d="M631 565L632 566L631 565M637 565L638 566L637 565M650 565L651 566L650 565M655 565L656 566L655 565M674 565L674 569L675 569L674 565z"/>
<path style="fill:#3c647e; stroke:none;" d="M685 565L686 566L685 565z"/>
<path style="fill:#638a9f; stroke:none;" d="M686 565L687 566L686 565z"/>
<path style="fill:#3c647e; stroke:none;" d="M699 565L700 566L699 565M703 565L704 566L703 565z"/>
<path style="fill:#f6f5f5; stroke:none;" d="M704 565L705 566L704 565z"/>
<path style="fill:#3c647e; stroke:none;" d="M706 565L707 566L706 565M716 565L717 566L716 565z"/>
<path style="fill:#638a9f; stroke:none;" d="M737 565L738 566L737 565M742 565L743 566L742 565M185.333 566.667L185.667 567.333L185.333 566.667M190 566L191 567L190 566M290 566L291 567L290 566M298.667 566.333L299.333 566.667L298.667 566.333z"/>
<path style="fill:#3c647e; stroke:none;" d="M300 566L301 567L300 566z"/>
<path style="fill:#638a9f; stroke:none;" d="M306 566L307 567L306 566z"/>
<path style="fill:#3c647e; stroke:none;" d="M344 566L345 567L344 566z"/>
<path style="fill:#638a9f; stroke:none;" d="M345 566L346 567L345 566M359 566L360 567L359 566M382 566L383 567L382 566M396 566L397 567L396 566M424 566L425 567L424 566z"/>
<path style="fill:#3c647e; stroke:none;" d="M425 566L425 567L428 567L425 566z"/>
<path style="fill:#638a9f; stroke:none;" d="M435 566L436 567L435 566z"/>
<path style="fill:#3c647e; stroke:none;" d="M460 566L461 567L460 566z"/>
<path style="fill:#638a9f; stroke:none;" d="M608 566L609 567L608 566z"/>
<path style="fill:#3c647e; stroke:none;" d="M613 566L614 567L613 566z"/>
<path style="fill:#638a9f; stroke:none;" d="M625 566L626 567L625 566z"/>
<path style="fill:#3c647e; stroke:none;" d="M626 566L626 567L629 567L626 566z"/>
<path style="fill:#638a9f; stroke:none;" d="M636 566L637 567L636 566z"/>
<path style="fill:#3c647e; stroke:none;" d="M654 566L655 567L654 566M660 566L661 567L660 566z"/>
<path style="fill:#638a9f; stroke:none;" d="M688 566L689 567L688 566M202 567L203 568L202 567M291 567L292 568L291 567z"/>
<path style="fill:#3c647e; stroke:none;" d="M304 567L305 568L304 567z"/>
<path style="fill:#638a9f; stroke:none;" d="M325 567L326 568L325 567M330 567L331 568L330 567z"/>
<path style="fill:#3c647e; stroke:none;" d="M340 567L341 568L340 567M351 567L352 568L351 567z"/>
<path style="fill:#638a9f; stroke:none;" d="M360 567L361 568L360 567z"/>
<path style="fill:#3c647e; stroke:none;" d="M383 567L384 568L383 567z"/>
<path style="fill:#638a9f; stroke:none;" d="M395 567L396 568L395 567M400 567L401 568L400 567z"/>
<path style="fill:#3c647e; stroke:none;" d="M433 567L434 568L433 567z"/>
<path style="fill:#638a9f; stroke:none;" d="M434.333 567.667L434.667 568.333L434.333 567.667M459 567L460 568L459 567z"/>
<path style="fill:#3c647e; stroke:none;" d="M464 567L465 568L464 567M497 567L497 572L498 572L497 567M608 567L609 568L608 567z"/>
<path style="fill:#638a9f; stroke:none;" d="M613 567L614 568L613 567z"/>
<path style="fill:#3c647e; stroke:none;" d="M634 567L635 568L634 567z"/>
<path style="fill:#638a9f; stroke:none;" d="M635.333 567.667L635.667 568.333L635.333 567.667z"/>
<path style="fill:#3c647e; stroke:none;" d="M649 567L650 568L649 567M689 567L690 568L689 567z"/>
<path style="fill:#638a9f; stroke:none;" d="M698 567L698 571L699 571L698 567z"/>
<path style="fill:#3c647e; stroke:none;" d="M709 567L710 568L709 567z"/>
<path style="fill:#638a9f; stroke:none;" d="M736 567L737 568L736 567M741 567L742 568L741 567M191 568L192 569L191 568M201 568L202 569L201 568M251 568L251 569L256 569L251 568M263 568L263 569L273 569L263 568z"/>
<path style="fill:#3c647e; stroke:none;" d="M293 568L294 569L293 568z"/>
<path style="fill:#638a9f; stroke:none;" d="M304 568L305 569L304 568M348 568L349 569L348 568z"/>
<path style="fill:#f6f5f5; stroke:none;" d="M349.058 568.758C342.033 571.471 345.497 584.338 352.946 582.149C360.982 579.787 357.622 565.449 349.058 568.758z"/>
<path style="fill:#638a9f; stroke:none;" d="M354 568L355 569L354 568z"/>
<path style="fill:#3c647e; stroke:none;" d="M370 568L370 569L375 569L370 568M384 568L385 569L384 568M399 568L400 569L399 568M459 568L460 569L459 568z"/>
<path style="fill:#638a9f; stroke:none;" d="M464 568L465 569L464 568z"/>
<path style="fill:#3c647e; stroke:none;" d="M533 568L534 569L533 568z"/>
<path style="fill:#638a9f; stroke:none;" d="M607 568L608 569L607 568z"/>
<path style="fill:#3c647e; stroke:none;" d="M612 568L613 569L612 568z"/>
<path style="fill:#638a9f; stroke:none;" d="M648 568L649 569L648 568M653 568L654 569L653 568z"/>
<path style="fill:#3c647e; stroke:none;" d="M676 568L676 569L681 569L676 568M690 568L691 569L690 568M706 568L707 569L706 568z"/>
<path style="fill:#f6f5f5; stroke:none;" d="M707.109 569.032C699.925 572.933 705.447 585.747 712.772 581.778C719.409 578.181 714.942 564.779 707.109 569.032z"/>
<path style="fill:#3c647e; stroke:none;" d="M719 568L720 569L719 568z"/>
<path style="fill:#638a9f; stroke:none;" d="M763 568L763 569L768 569L763 568M797 568L797 569L801 569L797 568z"/>
<path style="fill:#3c647e; stroke:none;" d="M801 568L802 569L801 568z"/>
<path style="fill:#638a9f; stroke:none;" d="M186 569L187 570L186 569M192 569L193 570L192 569M200 569L201 570L200 569z"/>
<path style="fill:#3c647e; stroke:none;" d="M292 569L293 570L292 569M305 569L306 570L305 569z"/>
<path style="fill:#638a9f; stroke:none;" d="M324 569L325 570L324 569M329 569L330 570L329 569z"/>
<path style="fill:#3c647e; stroke:none;" d="M346 569L347 570L346 569M361 569L362 570L361 569M378 569L379 570L378 569M385 569L386 570L385 569M394 569L395 570L394 569z"/>
<path style="fill:#638a9f; stroke:none;" d="M458 569L459 570L458 569z"/>
<path style="fill:#3c647e; stroke:none;" d="M463 569L464 570L463 569z"/>
<path style="fill:#638a9f; stroke:none;" d="M637 569L638 570L637 569M652 569L653 570L652 569z"/>
<path style="fill:#3c647e; stroke:none;" d="M684 569L685 570L684 569M691 569L692 570L691 569z"/>
<path style="fill:#638a9f; stroke:none;" d="M705 569L706 570L705 569z"/>
<path style="fill:#3c647e; stroke:none;" d="M714 569L715 570L714 569z"/>
<path style="fill:#638a9f; stroke:none;" d="M720 569L721 570L720 569M735 569L736 570L735 569M740 569L741 570L740 569M194 570L195 571L194 570M197 570L198 571L197 570z"/>
<path style="fill:#3c647e; stroke:none;" d="M198 570L199 571L198 570z"/>
<path style="fill:#638a9f; stroke:none;" d="M207 570L207 573L208 573L207 570M290 570L291 571L290 570M297.667 570.333L298.333 570.667L297.667 570.333M339 570L340 571L339 570z"/>
<path style="fill:#3c647e; stroke:none;" d="M345 570L346 571L345 570z"/>
<path style="fill:#638a9f; stroke:none;" d="M356 570L357 571L356 570M393 570L394 571L393 570M398 570L399 571L398 570M428.667 570.333L429.333 570.667L428.667 570.333z"/>
<path style="fill:#3c647e; stroke:none;" d="M430 570L431 571L430 570z"/>
<path style="fill:#638a9f; stroke:none;" d="M437 570L438 571L437 570M457 570L458 571L457 570M463 570L464 571L463 570z"/>
<path style="fill:#3c647e; stroke:none;" d="M606 570L607 571L606 570z"/>
<path style="fill:#638a9f; stroke:none;" d="M611 570L612 571L611 570M629.667 570.333L630.333 570.667L629.667 570.333M638 570L639 571L638 570z"/>
<path style="fill:#3c647e; stroke:none;" d="M647 570L648 571L647 570M651 570L652 571L651 570z"/>
<path style="fill:#638a9f; stroke:none;" d="M692 570L693 571L692 570M704 570L705 571L704 570z"/>
<path style="fill:#3c647e; stroke:none;" d="M715 570L716 571L715 570M720 570L721 571L720 570z"/>
<path style="fill:#638a9f; stroke:none;" d="M289 571L290 572L289 571M295 571L293 574L295 571z"/>
<path style="fill:#f6f5f5; stroke:none;" d="M296.148 572.047C289.484 575.653 294.96 585.796 301.852 581.817C307.985 578.276 301.965 568.899 296.148 572.047z"/>
<path style="fill:#3c647e; stroke:none;" d="M301 571L302 572L301 571z"/>
<path style="fill:#638a9f; stroke:none;" d="M323 571L324 572L323 571M328 571L329 572L328 571M362 571L363 572L362 571z"/>
<path style="fill:#3c647e; stroke:none;" d="M386 571L387 572L386 571z"/>
<path style="fill:#638a9f; stroke:none;" d="M397 571L398 572L397 571M438 571L439 572L438 571M462 571L463 572L462 571M605 571L606 572L605 571z"/>
<path style="fill:#3c647e; stroke:none;" d="M610 571L611 572L610 571z"/>
<path style="fill:#638a9f; stroke:none;" d="M639 571L640 572L639 571M646 571L647 572L646 571M651 571L652 572L651 571z"/>
<path style="fill:#3c647e; stroke:none;" d="M692 571L693 572L692 571M698 571L698 574L699 574L698 571M703 571L704 572L703 571z"/>
<path style="fill:#638a9f; stroke:none;" d="M734 571L735 572L734 571z"/>
<path style="fill:#3c647e; stroke:none;" d="M739 571L740 572L739 571z"/>
<path style="fill:#638a9f; stroke:none;" d="M201.667 572.333L202.333 572.667L201.667 572.333M302 572L303 573L302 572M344 572L344 576L345 576L344 572M357 572L358 573L357 572z"/>
<path style="fill:#3c647e; stroke:none;" d="M362.333 572.667L362.667 573.333L362.333 572.667z"/>
<path style="fill:#638a9f; stroke:none;" d="M381 572L382 573L381 572z"/>
<path style="fill:#3c647e; stroke:none;" d="M392 572L393 573L392 572M396.333 572.667L396.667 573.333L396.333 572.667M433 572L434 573L433 572M438 572L439 573L438 572M461 572L462 573L461 572z"/>
<path style="fill:#638a9f; stroke:none;" d="M497 572L497 575L498 575L497 572M604 572L605 573L604 572z"/>
<path style="fill:#3c647e; stroke:none;" d="M634 572L635 573L634 572z"/>
<path style="fill:#638a9f; stroke:none;" d="M650 572L655 574L655 573L650 572M687 572L688 573L687 572M703 572L704 573L703 572M190 573L191 574L190 573z"/>
<path style="fill:#3c647e; stroke:none;" d="M199 573L200 574L199 573M202 573L203 574L202 573M288 573L289 574L288 573z"/>
<path style="fill:#638a9f; stroke:none;" d="M303 573L304 574L303 573M309 573L310 574L309 573M322 573L323 574L322 573M327 573L328 574L327 573M391 573L392 574L391 573M397 573L397 574L403 574L397 573z"/>
<path style="fill:#3c647e; stroke:none;" d="M403.667 573.333L404.333 573.667L403.667 573.333M406 573L407 574L406 573M411 573L412 574L411 573M413 573L413 574L415 577L416 577L413 573z"/>
<path style="fill:#638a9f; stroke:none;" d="M415 573L416 574L415 573M439 573L440 574L439 573z"/>
<path style="fill:#3c647e; stroke:none;" d="M460 573L461 574L460 573z"/>
<path style="fill:#638a9f; stroke:none;" d="M502.333 573.667L502.667 574.333L502.333 573.667M603 573L604 574L603 573M609 573L610 574L609 573M640 573L641 574L640 573z"/>
<path style="fill:#3c647e; stroke:none;" d="M655 573L655 574L659 574L655 573z"/>
<path style="fill:#638a9f; stroke:none;" d="M659 573L660 574L659 573z"/>
<path style="fill:#3c647e; stroke:none;" d="M665 573L666 574L665 573z"/>
<path style="fill:#638a9f; stroke:none;" d="M666 573L666 574L669 577L670 577L670 573L666 573z"/>
<path style="fill:#3c647e; stroke:none;" d="M716 573L717 574L716 573z"/>
<path style="fill:#638a9f; stroke:none;" d="M721 573L721 577L722 577L721 573M733 573L734 574L733 573z"/>
<path style="fill:#3c647e; stroke:none;" d="M738 573L739 574L738 573z"/>
<path style="fill:#638a9f; stroke:none;" d="M193 574L193 575L198 575L193 574z"/>
<path style="fill:#3c647e; stroke:none;" d="M206 574L207 575L206 574M292 574L293 575L292 574z"/>
<path style="fill:#638a9f; stroke:none;" d="M304 574L305 575L304 574z"/>
<path style="fill:#3c647e; stroke:none;" d="M309 574L310 575L309 574M322 574L323 575L322 574M382 574L383 575L382 574z"/>
<path style="fill:#638a9f; stroke:none;" d="M387 574L387 577L388 577L387 574z"/>
<path style="fill:#3c647e; stroke:none;" d="M391 574L391 577L392 577L391 574z"/>
<path style="fill:#638a9f; stroke:none;" d="M434 574L435 575L434 574z"/>
<path style="fill:#3c647e; stroke:none;" d="M439.333 574.667L439.667 575.333L439.333 574.667z"/>
<path style="fill:#638a9f; stroke:none;" d="M602 574L603 575L602 574M608 574L609 575L608 574M635.333 574.667L635.667 575.333L635.333 574.667z"/>
<path style="fill:#3c647e; stroke:none;" d="M640 574L641 575L640 574z"/>
<path style="fill:#638a9f; stroke:none;" d="M644 574L644 577L645 577L644 574z"/>
<path style="fill:#3c647e; stroke:none;" d="M688 574L689 575L688 574z"/>
<path style="fill:#638a9f; stroke:none;" d="M693 574L693 577L694 577L693 574M698 574L698 578L699 578L698 574M716.333 574.667L716.667 575.333L716.333 574.667M201 575L202 576L201 575M206 575L207 576L206 575M287 575L288 576L287 575M292 575L292 579L293 579L292 575M321 575L322 576L321 575M326 575L327 576L326 575M382.333 575.667L382.667 576.333L382.333 575.667z"/>
<path style="fill:#3c647e; stroke:none;" d="M453 575L454 576L453 575M458 575L459 576L458 575M502 575L503 576L502 575M519 575L520 576L519 575z"/>
<path style="fill:#638a9f; stroke:none;" d="M601 575L602 576L601 575M607 575L608 576L607 575M688.333 575.667L688.667 576.333L688.333 575.667M732 575L733 576L732 575M737 575L738 576L737 575z"/>
<path style="fill:#3c647e; stroke:none;" d="M287 576L288 577L287 576M321 576L322 577L321 576M344 576L345 577L344 576M362.333 576.667L362.667 577.333L362.333 576.667M452 576L453 577L452 576z"/>
<path style="fill:#638a9f; stroke:none;" d="M514 576L515 577L514 576M519.333 576.667L519.667 577.333L519.333 576.667M600 576L601 577L600 576M606 576L607 577L606 576M703.333 576.667L703.667 577.333L703.333 576.667z"/>
<path style="fill:#3c647e; stroke:none;" d="M716.333 576.667L716.667 577.333L716.333 576.667z"/>
<path style="fill:#638a9f; stroke:none;" d="M200 577L201 578L200 577M205 577L206 578L205 577M287 577L288 578L287 577M320 577L321 578L320 577M325 577L326 578L325 577z"/>
<path style="fill:#3c647e; stroke:none;" d="M340 577L341 578L340 577z"/>
<path style="fill:#638a9f; stroke:none;" d="M357 577L358 578L357 577z"/>
<path style="fill:#3c647e; stroke:none;" d="M382 577L383 578L382 577z"/>
<path style="fill:#638a9f; stroke:none;" d="M392 577L392 578L406 578L406 586L407 586L407 577L392 577M411 577L411 586L412 586L415 578L411 577z"/>
<path style="fill:#3c647e; stroke:none;" d="M439 577L439 580L440 580L439 577M498 577L499 578L498 577M514 577L515 578L514 577z"/>
<path style="fill:#638a9f; stroke:none;" d="M599 577L600 578L599 577M605 577L606 578L605 577M645 577L645 578L660 578L645 577M665 577L665 578L669 578L665 577M731 577L732 578L731 577z"/>
<path style="fill:#3c647e; stroke:none;" d="M736 577L737 578L736 577z"/>
<path style="fill:#638a9f; stroke:none;" d="M199 578L200 579L199 578z"/>
<path style="fill:#3c647e; stroke:none;" d="M287 578L288 579L287 578M320 578L321 579L320 578z"/>
<path style="fill:#638a9f; stroke:none;" d="M340 578L341 579L340 578M345 578L346 579L345 578z"/>
<path style="fill:#3c647e; stroke:none;" d="M357 578L358 579L357 578z"/>
<path style="fill:#638a9f; stroke:none;" d="M362 578L363 579L362 578M434 578L435 579L434 578z"/>
<path style="fill:#3c647e; stroke:none;" d="M455 578L456 579L455 578z"/>
<path style="fill:#638a9f; stroke:none;" d="M498 578L499 579L498 578M503 578L504 579L503 578M598 578L599 579L598 578M604 578L605 579L604 578M635 578L636 579L635 578z"/>
<path style="fill:#3c647e; stroke:none;" d="M731 578L732 579L731 578z"/>
<path style="fill:#638a9f; stroke:none;" d="M198 579L199 580L198 579M204 579L205 580L204 579M287 579L288 580L287 579z"/>
<path style="fill:#3c647e; stroke:none;" d="M292 579L293 580L292 579M309 579L310 580L309 579z"/>
<path style="fill:#638a9f; stroke:none;" d="M319 579L320 580L319 579M324 579L325 580L324 579z"/>
<path style="fill:#3c647e; stroke:none;" d="M345 579L346 580L345 579M381 579L382 580L381 579z"/>
<path style="fill:#638a9f; stroke:none;" d="M386 579L387 580L386 579z"/>
<path style="fill:#3c647e; stroke:none;" d="M434 579L435 580L434 579z"/>
<path style="fill:#638a9f; stroke:none;" d="M513 579L514 580L513 579z"/>
<path style="fill:#3c647e; stroke:none;" d="M518 579L519 580L518 579z"/>
<path style="fill:#638a9f; stroke:none;" d="M597 579L598 580L597 579M603 579L604 580L603 579z"/>
<path style="fill:#3c647e; stroke:none;" d="M635 579L636 580L635 579z"/>
<path style="fill:#638a9f; stroke:none;" d="M640 579L641 580L640 579z"/>
<path style="fill:#3c647e; stroke:none;" d="M660 579L660 582L661 582L660 579M687 579L688 580L687 579M692 579L693 580L692 579z"/>
<path style="fill:#638a9f; stroke:none;" d="M699 579L700 580L699 579M704 579L705 580L704 579M715 579L716 580L715 579z"/>
<path style="fill:#3c647e; stroke:none;" d="M720 579L721 580L720 579z"/>
<path style="fill:#638a9f; stroke:none;" d="M730 579L731 580L730 579z"/>
<path style="fill:#3c647e; stroke:none;" d="M735 579L736 580L735 579z"/>
<path style="fill:#638a9f; stroke:none;" d="M197 580L198 581L197 580M203 580L204 581L203 580z"/>
<path style="fill:#3c647e; stroke:none;" d="M304 580L305 581L304 580z"/>
<path style="fill:#638a9f; stroke:none;" d="M309 580L310 581L309 580z"/>
<path style="fill:#3c647e; stroke:none;" d="M341 580L342 581L341 580z"/>
<path style="fill:#638a9f; stroke:none;" d="M346 580L347 581L346 580M356 580L357 581L356 580z"/>
<path style="fill:#3c647e; stroke:none;" d="M361 580L362 581L361 580z"/>
<path style="fill:#638a9f; stroke:none;" d="M380 580L381 581L380 580M433 580L434 581L433 580M439 580L440 581L439 580z"/>
<path style="fill:#3c647e; stroke:none;" d="M448 580L449 581L448 580M453 580L454 581L453 580M499 580L500 581L499 580z"/>
<path style="fill:#638a9f; stroke:none;" d="M504 580L505 581L504 580M596 580L597 581L596 580M602 580L603 581L602 580M634 580L635 581L634 580M686 580L687 581L686 580M720 580L721 581L720 580z"/>
<path style="fill:#3c647e; stroke:none;" d="M730 580L731 581L730 580z"/>
<path style="fill:#638a9f; stroke:none;" d="M195 581L196 582L195 581z"/>
<path style="fill:#3c647e; stroke:none;" d="M202 581L203 582L202 581M293 581L294 582L293 581z"/>
<path style="fill:#638a9f; stroke:none;" d="M303 581L304 582L303 581M318 581L319 582L318 581M323.333 581.667L323.667 582.333L323.333 581.667M347 581L348 582L347 581M355 581L356 582L355 581M367 581L367 582L370 582L367 581M379 581L380 582L379 581M385 581L386 582L385 581M419.333 581.667L419.667 582.333L419.333 581.667z"/>
<path style="fill:#3c647e; stroke:none;" d="M420 581L421 582L420 581z"/>
<path style="fill:#638a9f; stroke:none;" d="M421.667 581.333L422.333 581.667L421.667 581.333M432 581L433 582L432 581z"/>
<path style="fill:#3c647e; stroke:none;" d="M438 581L439 582L438 581M447 581L448 582L447 581z"/>
<path style="fill:#638a9f; stroke:none;" d="M505 581L506 582L505 581z"/>
<path style="fill:#3c647e; stroke:none;" d="M512 581L513 582L512 581M517 581L518 582L517 581z"/>
<path style="fill:#638a9f; stroke:none;" d="M595 581L596 582L595 581M601 581L602 582L601 581M622 581L623 582L622 581M633 581L634 582L633 581z"/>
<path style="fill:#3c647e; stroke:none;" d="M639 581L640 582L639 581z"/>
<path style="fill:#638a9f; stroke:none;" d="M673.667 581.333L674.333 581.667L673.667 581.333M685 581L686 582L685 581z"/>
<path style="fill:#3c647e; stroke:none;" d="M691 581L692 582L691 581z"/>
<path style="fill:#638a9f; stroke:none;" d="M700 581L701 582L700 581z"/>
<path style="fill:#3c647e; stroke:none;" d="M705 581L706 582L705 581z"/>
<path style="fill:#638a9f; stroke:none;" d="M706 581L707 582L706 581z"/>
<path style="fill:#3c647e; stroke:none;" d="M714 581L715 582L714 581M719 581L720 582L719 581z"/>
<path style="fill:#638a9f; stroke:none;" d="M729 581L730 582L729 581z"/>
<path style="fill:#3c647e; stroke:none;" d="M734 581L735 582L734 581z"/>
<path style="fill:#638a9f; stroke:none;" d="M189 582L189 583L193 583L189 582z"/>
<path style="fill:#3c647e; stroke:none;" d="M193 582L194 583L193 582M201 582L202 583L201 582z"/>
<path style="fill:#638a9f; stroke:none;" d="M295 582L296 583L295 582M301 582L302 583L301 582z"/>
<path style="fill:#3c647e; stroke:none;" d="M302 582L303 583L302 582z"/>
<path style="fill:#638a9f; stroke:none;" d="M308 582L309 583L308 582z"/>
<path style="fill:#3c647e; stroke:none;" d="M318 582L319 583L318 582z"/>
<path style="fill:#638a9f; stroke:none;" d="M342 582L343 583L342 582M348.667 582.333L349.333 582.667L348.667 582.333M353.667 582.333L354.333 582.667L353.667 582.333M360 582L361 583L360 582z"/>
<path style="fill:#3c647e; stroke:none;" d="M370 582L371 583L370 582z"/>
<path style="fill:#638a9f; stroke:none;" d="M371.667 582.333L372.333 582.667L371.667 582.333M376.667 582.333L377.333 582.667L376.667 582.333z"/>
<path style="fill:#3c647e; stroke:none;" d="M378 582L379 583L378 582M384 582L385 583L384 582M423 582L424 583L423 582z"/>
<path style="fill:#638a9f; stroke:none;" d="M424.667 582.333L425.333 582.667L424.667 582.333M429.667 582.333L430.333 582.667L429.667 582.333z"/>
<path style="fill:#3c647e; stroke:none;" d="M431 582L432 583L431 582M446 582L447 583L446 582M452 582L452 583L466 583L452 582z"/>
<path style="fill:#638a9f; stroke:none;" d="M466 582L467 583L466 582M500 582L501 583L500 582M506 582L507 583L506 582M510 582L511 583L510 582z"/>
<path style="fill:#3c647e; stroke:none;" d="M511 582L512 583L511 582z"/>
<path style="fill:#638a9f; stroke:none;" d="M594 582L595 583L594 582z"/>
<path style="fill:#3c647e; stroke:none;" d="M601 582L601 583L615 583L601 582z"/>
<path style="fill:#638a9f; stroke:none;" d="M620 582L621 583L620 582z"/>
<path style="fill:#3c647e; stroke:none;" d="M624 582L625 583L624 582z"/>
<path style="fill:#638a9f; stroke:none;" d="M625 582L625 583L628 583L625 582M630.667 582.333L631.333 582.667L630.667 582.333z"/>
<path style="fill:#3c647e; stroke:none;" d="M632 582L633 583L632 582M676 582L677 583L676 582z"/>
<path style="fill:#638a9f; stroke:none;" d="M677.667 582.333L678.333 582.667L677.667 582.333M682.667 582.333L683.333 582.667L682.667 582.333z"/>
<path style="fill:#3c647e; stroke:none;" d="M684 582L685 583L684 582M690 582L691 583L690 582z"/>
<path style="fill:#638a9f; stroke:none;" d="M707.667 582.333L708.333 582.667L707.667 582.333M712 582L713 583L712 582z"/>
<path style="fill:#3c647e; stroke:none;" d="M729 582L730 583L729 582z"/>
<path style="fill:#638a9f; stroke:none;" d="M200 583L201 584L200 583M289 583L290 584L289 583z"/>
<path style="fill:#3c647e; stroke:none;" d="M297 583L297 584L301 584L297 583z"/>
<path style="fill:#638a9f; stroke:none;" d="M307 583L308 584L307 583M317 583L318 584L317 583z"/>
<path style="fill:#3c647e; stroke:none;" d="M322 583L323 584L322 583z"/>
<path style="fill:#638a9f; stroke:none;" d="M343 583L344 584L343 583M359 583L360 584L359 583M366.333 583.667L366.667 584.333L366.333 583.667z"/>
<path style="fill:#3c647e; stroke:none;" d="M383 583L384 584L383 583z"/>
<path style="fill:#638a9f; stroke:none;" d="M437 583L438 584L437 583z"/>
<path style="fill:#3c647e; stroke:none;" d="M445 583L446 584L445 583M501 583L502 584L501 583z"/>
<path style="fill:#638a9f; stroke:none;" d="M516 583L517 584L516 583M638 583L639 584L638 583M672.333 583.667L672.667 584.333L672.333 583.667z"/>
<path style="fill:#3c647e; stroke:none;" d="M689 583L690 584L689 583z"/>
<path style="fill:#638a9f; stroke:none;" d="M718 583L719 584L718 583M728 583L729 584L728 583M198 584L199 585L198 584M290 584L291 585L290 584M306 584L307 585L306 584M322 584L323 585L322 584M344 584L345 585L344 584M358 584L359 585L358 584z"/>
<path style="fill:#3c647e; stroke:none;" d="M382 584L383 585L382 584M419 584L420 585L419 584M435 584L436 585L435 584z"/>
<path style="fill:#638a9f; stroke:none;" d="M436 584L437 585L436 584z"/>
<path style="fill:#3c647e; stroke:none;" d="M502 584L503 585L502 584z"/>
<path style="fill:#638a9f; stroke:none;" d="M515 584L516 585L515 584z"/>
<path style="fill:#3c647e; stroke:none;" d="M636 584L637 585L636 584z"/>
<path style="fill:#638a9f; stroke:none;" d="M637 584L638 585L637 584z"/>
<path style="fill:#3c647e; stroke:none;" d="M688 584L689 585L688 584M703 584L704 585L703 584z"/>
<path style="fill:#638a9f; stroke:none;" d="M717 584L718 585L717 584z"/>
<path style="fill:#3c647e; stroke:none;" d="M728 584L729 585L728 584z"/>
<path style="fill:#638a9f; stroke:none;" d="M733 584L734 585L733 584M196.667 585.333L197.333 585.667L196.667 585.333M292 585L293 586L292 585M304 585L305 586L304 585M316 585L317 586L316 585z"/>
<path style="fill:#3c647e; stroke:none;" d="M321 585L322 586L321 585z"/>
<path style="fill:#638a9f; stroke:none;" d="M345 585L346 586L345 585z"/>
<path style="fill:#3c647e; stroke:none;" d="M346 585L347 586L346 585M356 585L357 586L356 585z"/>
<path style="fill:#638a9f; stroke:none;" d="M357 585L358 586L357 585M367 585L368 586L367 585z"/>
<path style="fill:#3c647e; stroke:none;" d="M368 585L369 586L368 585M380 585L381 586L380 585z"/>
<path style="fill:#638a9f; stroke:none;" d="M381 585L382 586L381 585M420 585L421 586L420 585z"/>
<path style="fill:#3c647e; stroke:none;" d="M421 585L422 586L421 585M433 585L434 586L433 585z"/>
<path style="fill:#638a9f; stroke:none;" d="M434 585L435 586L434 585M503 585L504 586L503 585z"/>
<path style="fill:#3c647e; stroke:none;" d="M513 585L514 586L513 585z"/>
<path style="fill:#638a9f; stroke:none;" d="M593 585L594 586L593 585M621 585L622 586L621 585z"/>
<path style="fill:#3c647e; stroke:none;" d="M622 585L623 586L622 585M634 585L635 586L634 585z"/>
<path style="fill:#638a9f; stroke:none;" d="M635 585L636 586L635 585M673 585L674 586L673 585z"/>
<path style="fill:#3c647e; stroke:none;" d="M674 585L675 586L674 585M686 585L687 586L686 585z"/>
<path style="fill:#638a9f; stroke:none;" d="M687 585L688 586L687 585M704 585L705 586L704 585M715 585L716 586L715 585M727 585L728 586L727 585z"/>
<path style="fill:#3c647e; stroke:none;" d="M188 586L188 587L192 587L188 586z"/>
<path style="fill:#638a9f; stroke:none;" d="M192.667 586.333L193.333 586.667L192.667 586.333M294.667 586.333L295.333 586.667L294.667 586.333z"/>
<path style="fill:#3c647e; stroke:none;" d="M296 586L296 587L299 587L296 586M300 586L301 587L300 586z"/>
<path style="fill:#638a9f; stroke:none;" d="M301.667 586.333L302.333 586.667L301.667 586.333M317 586L317 587L321 587L317 586M347.667 586.333L348.333 586.667L347.667 586.333z"/>
<path style="fill:#3c647e; stroke:none;" d="M349 586L349 587L354 587L349 586z"/>
<path style="fill:#638a9f; stroke:none;" d="M354.667 586.333L355.333 586.667L354.667 586.333M369 586L369 587L372 587L369 586z"/>
<path style="fill:#3c647e; stroke:none;" d="M372 586L372 587L377 587L372 586z"/>
<path style="fill:#638a9f; stroke:none;" d="M377.667 586.333L378.333 586.667L377.667 586.333M407 586L407 587L411 587L407 586M422 586L422 587L425 587L422 586z"/>
<path style="fill:#3c647e; stroke:none;" d="M425.667 586.333L426.333 586.667L425.667 586.333M429 586L430 587L429 586z"/>
<path style="fill:#638a9f; stroke:none;" d="M430 586L430 587L433 587L430 586M445 586L445 587L467 587L445 586M481 586L481 587L486 587L481 586M505 586L506 587L505 586z"/>
<path style="fill:#3c647e; stroke:none;" d="M506 586L506 587L511 587L506 586z"/>
<path style="fill:#638a9f; stroke:none;" d="M511.667 586.333L512.333 586.667L511.667 586.333M577 586L577 587L582 587L577 586M594 586L594 587L615 587L594 586M623 586L623 587L626 587L623 586z"/>
<path style="fill:#3c647e; stroke:none;" d="M626 586L627 587L626 586M630 586L631 587L630 586z"/>
<path style="fill:#638a9f; stroke:none;" d="M631 586L631 587L634 587L631 586M660 586L660 587L665 587L660 586M675 586L675 587L678 587L675 586z"/>
<path style="fill:#3c647e; stroke:none;" d="M678 586L678 587L681 587L678 586M682.667 586.333L683.333 586.667L682.667 586.333z"/>
<path style="fill:#638a9f; stroke:none;" d="M684.667 586.333L685.333 586.667L684.667 586.333M706.667 586.333L707.333 586.667L706.667 586.333z"/>
<path style="fill:#3c647e; stroke:none;" d="M708 586L709 587L708 586M710 586L710 587L713 587L710 586z"/>
<path style="fill:#638a9f; stroke:none;" d="M713 586L714 587L713 586M728 586L728 587L732 587L728 586z"/>
<path style="fill:#3c647e; stroke:none;" d="M127.333 587.667L127.667 588.333L127.333 587.667M119 595L118 597L120 597L119 595M116 598L115 600L117 600L116 598z"/>
<path style="fill:#638a9f; stroke:none;" d="M131 617L131 621L132 621L131 617z"/>
<path style="fill:#3c647e; stroke:none;" d="M859.333 617.667L859.667 618.333L859.333 617.667z"/>
<path style="fill:#638a9f; stroke:none;" d="M858.333 620.667L858.667 621.333L858.333 620.667M132.333 622.667L132.667 623.333L132.333 622.667z"/>
<path style="fill:#3c647e; stroke:none;" d="M858 622L859 623L858 622z"/>
<path style="fill:#638a9f; stroke:none;" d="M129 623L128 624L130 627L131 627L129 623M857 624L858 625L857 624M133 625L134 626L133 625M856 626L857 627L856 626M128 627L129 628L128 627M132 627L130 629L130 630L132 632L133 632L132 627M134 627L135 628L134 627M855 628L856 629L855 628M135 629L136 630L135 629M134 630L135 631L134 630M136 630L137 631L136 630z"/>
<path style="fill:#3c647e; stroke:none;" d="M854 630L855 631L854 630z"/>
<path style="fill:#638a9f; stroke:none;" d="M853 631L854 632L853 631z"/>
<path style="fill:#321715; stroke:none;" d="M863 631L864 632L863 631z"/>
<path style="fill:#638a9f; stroke:none;" d="M137 632L138 633L137 632M852 632L853 633L852 632M136 633L137 634L136 633M138 633L139 634L138 633z"/>
<path style="fill:#3c647e; stroke:none;" d="M852 633L853 634L852 633z"/>
<path style="fill:#638a9f; stroke:none;" d="M139 634L140 635L139 634z"/>
<path style="fill:#3c647e; stroke:none;" d="M851 634L852 635L851 634z"/>
<path style="fill:#638a9f; stroke:none;" d="M138 635L137 637L139 637L138 635M140 635L141 636L140 635z"/>
<path style="fill:#3c647e; stroke:none;" d="M850 635L851 636L850 635z"/>
<path style="fill:#638a9f; stroke:none;" d="M141 636L141 638L143 638L141 636M848 636L849 637L848 636z"/>
<path style="fill:#3c647e; stroke:none;" d="M849 636L850 637L849 636z"/>
<path style="fill:#638a9f; stroke:none;" d="M847 637L848 638L847 637z"/>
<path style="fill:#3c647e; stroke:none;" d="M853 637L854 638L853 637z"/>
<path style="fill:#638a9f; stroke:none;" d="M136 638L136 639L139 639L139 638L136 638M144 638L145 639L144 638z"/>
<path style="fill:#3c647e; stroke:none;" d="M846 638L847 639L846 638z"/>
<path style="fill:#638a9f; stroke:none;" d="M141 639L142 640L141 639M844 639L845 640L844 639z"/>
<path style="fill:#3c647e; stroke:none;" d="M845 639L846 640L845 639z"/>
<path style="fill:#638a9f; stroke:none;" d="M842 640L843 641L842 640z"/>
<path style="fill:#3c647e; stroke:none;" d="M843 640L844 641L843 640z"/>
<path style="fill:#638a9f; stroke:none;" d="M145 641L146 642L145 641z"/>
<path style="fill:#3c647e; stroke:none;" d="M149 641L150 642L149 641z"/>
<path style="fill:#638a9f; stroke:none;" d="M840 641L841 642L840 641z"/>
<path style="fill:#3c647e; stroke:none;" d="M841 641L842 642L841 641M151 642L152 643L151 642z"/>
<path style="fill:#638a9f; stroke:none;" d="M152 642L153 643L152 642M838 642L839 643L838 642M146.667 643.333L147.333 643.667L146.667 643.333z"/>
<path style="fill:#3c647e; stroke:none;" d="M154 643L155 644L154 643z"/>
<path style="fill:#638a9f; stroke:none;" d="M155 643L155 644L158 644L155 643M833.667 643.333L834.333 643.667L833.667 643.333z"/>
<path style="fill:#3c647e; stroke:none;" d="M835 643L836 644L835 643z"/>
<path style="fill:#638a9f; stroke:none;" d="M144 644L145 645L144 644z"/>
<path style="fill:#3c647e; stroke:none;" d="M162 644L162 645L829 645L810 644L771 644L635 644L162 644z"/>
<path style="fill:#638a9f; stroke:none;" d="M146.667 645.333L147.333 645.667L146.667 645.333M144 646L146 648L144 646M150 646L153 649L150 646M148 647L149 648L148 647z"/>
<path style="fill:#321715; stroke:none;" d="M847 647L848 648L847 647z"/>
<path style="fill:#638a9f; stroke:none;" d="M155 651L156 652L155 651M157 652L158 653L157 652M155 654L156 655L155 654M159.667 654.333L160.333 654.667L159.667 654.333M162 655L163 656L162 655M80 664L80 666L82 664L80 664M64 680L64 682L66 680L64 680M999 712L999 728L1000 728L999 712z"/>
</svg>
